<svg width="35" height="35" fill="none" xmlns="http://www.w3.org/2000/svg"><g clip-path="url(#clip0)"><path d="M27.303 20.868a7.066 7.066 0 00-6.215 3.703 37.444 37.444 0 00-3.63-.17c-1.231 0-2.421.055-3.549.162a7.028 7.028 0 00-6.211-3.695 7.074 7.074 0 00-7.066 7.066A7.074 7.074 0 007.698 35a7.008 7.008 0 004.221-1.4 7.033 7.033 0 002.204-2.72 38.02 38.02 0 003.335.142c1.183 0 2.329-.05 3.418-.15a7.142 7.142 0 002.2 2.725A7.008 7.008 0 0027.302 35a7.074 7.074 0 007.066-7.066 7.074 7.074 0 00-7.065-7.066z" fill="url(#paint0_linear)"/><path d="M33.586 4.943A7.02 7.02 0 0030.11.8a7.02 7.02 0 00-5.39-.47 7.022 7.022 0 00-3.45 2.4 7.064 7.064 0 00-1.362 3.002c-1.13.24-2.309.552-3.513.931a37.6 37.6 0 00-3.335 1.223 7.028 7.028 0 00-7.035-1.655 7.074 7.074 0 00-4.612 8.865c.95 3.01 3.74 4.94 6.743 4.94a7.06 7.06 0 002.122-.328 7.008 7.008 0 003.604-2.605 7.036 7.036 0 001.283-3.258 38.014 38.014 0 003.223-.869 37.773 37.773 0 003.215-1.171 7.144 7.144 0 002.919 1.936 7.008 7.008 0 004.451.066 7.02 7.02 0 004.143-3.477 7.02 7.02 0 00.47-5.388z" fill="url(#paint1_linear)"/></g><defs><linearGradient id="paint0_linear" x1="17.5" y1="20.868" x2="17.5" y2="35" gradientUnits="userSpaceOnUse"><stop stop-color="#CAA960"/><stop offset="1" stop-color="#F3D48E"/></linearGradient><linearGradient id="paint1_linear" x1="17.501" y1="0" x2="17.501" y2="20.037" gradientUnits="userSpaceOnUse"><stop stop-color="#CAA960"/><stop offset="1" stop-color="#F3D48E"/></linearGradient><clipPath id="clip0"><path fill="#fff" d="M0 0h35v35H0z"/></clipPath></defs></svg>