<svg width="120" height="120" fill="none" xmlns="http://www.w3.org/2000/svg"><g clip-path="url(#clip0)"><mask id="path-1-outside-1" maskUnits="userSpaceOnUse" x="-1" y="6.189" width="122" height="113" fill="#000"><path fill="#fff" d="M-1 6.189h122v113H-1z"/><path d="M118.242 91.153c.971 0 1.758-.835 1.758-1.866V85.68c0-3.648-2.624-6.616-5.849-6.616h-2.845V75.24c0-2.675-2.051-4.852-4.571-4.852H92.586c-2.52 0-4.57 2.177-4.57 4.852v9.957c-12.64-1.565-28.373-1.567-41.034 0V75.24c0-2.675-2.05-4.852-4.57-4.852h-1.119c9.637-6.229 20.413-14.676 28.816-22.902l5.518 8.052c1.484 2.167 4.35 2.64 6.385 1.07l11.442-8.835c2.038-1.573 2.49-4.614 1.007-6.778l-2.118-3.092 2.3-1.776c2.609-2.014 3.086-6.053 1.065-9.003l-9.542-13.925c-2.022-2.95-5.788-3.712-8.396-1.698l-2.3 1.777-2.12-3.092c-1.482-2.164-4.346-2.643-6.384-1.07L55.523 17.95c-2.038 1.573-2.49 4.614-1.007 6.777l5.517 8.052C48.941 39.41 36.22 49.23 26.85 58.403l-4.058-5.923c-2.286-3.335-6.708-4.077-9.85-1.65L5.51 56.566c-3.144 2.428-3.841 7.119-1.554 10.456l.66.963-2.301 1.776c-2.66 2.054-3.045 6.113-1.065 9.003l9.542 13.924c1.044 1.524 2.574 2.493 4.205 2.75v7.459c0 3.648 2.625 6.617 5.85 6.617h2.845v3.823c0 2.675 2.05 4.852 4.57 4.852h14.15c2.52 0 4.57-2.177 4.57-4.852v-9.956c4.995.617 10.611 1.005 16.38 1.128h.036c.954 0 1.737-.811 1.757-1.828.02-1.031-.752-1.883-1.723-1.903-5.816-.125-11.466-.522-16.45-1.155v-10.67c12.435-1.583 28.34-1.615 41.034 0v10.67c-4.984.633-10.635 1.03-16.45 1.155-.971.02-1.743.872-1.723 1.902.02 1.018.802 1.829 1.757 1.829h.036c5.768-.123 11.384-.511 16.38-1.128v9.956c0 2.675 2.05 4.852 4.57 4.852h14.149c2.521 0 4.571-2.177 4.571-4.852v-3.823h2.845c3.225 0 5.849-2.969 5.849-6.617v-4.901c0-1.03-.787-1.866-1.758-1.866s-1.758.835-1.758 1.866v4.901c0 1.563-1.068 2.884-2.333 2.884h-2.845V82.795h2.845c1.265 0 2.333 1.32 2.333 2.884v3.609c0 1.03.787 1.865 1.758 1.865zM79.838 14.518c1.022-.789 2.619-.389 3.485.875l9.541 13.925c.866 1.264.734 3-.289 3.79l-2.3 1.776-12.738-18.59 2.3-1.776zm-22.479 8.014c-.336-.49-.23-1.207.233-1.564l11.442-8.835a1.029 1.029 0 011.473.247l17.958 26.21.001.001 3.152 4.6c.336.49.23 1.207-.233 1.564L79.943 53.59a1.023 1.023 0 01-1.473-.247l-21.111-30.81zm4.756 13.286l5.913 8.629c-9.146 9.01-21.974 18.971-33.185 25.62l-5.912-8.627c9.12-8.987 21.957-18.963 33.184-25.622zm-47.118 49.86v5.924a3.017 3.017 0 01-1.361-1.109L4.094 76.568c-.906-1.321-.703-3.022.29-3.789l2.3-1.776L15.3 83.58a7.491 7.491 0 00-.304 2.099zm8.695 20.103h-2.845c-1.265 0-2.334-1.321-2.334-2.884V85.678c0-.651.203-1.355.604-1.908.479-.66 1.125-.975 1.73-.975h2.844v22.986zm0-30.542v3.823h-2.845a5.147 5.147 0 00-.5.026 5.425 5.425 0 00-2.93 1.235L6.8 64.826c-1.147-1.672-.797-4.024.78-5.241l7.43-5.738c1.57-1.212 3.796-.84 4.938.827l10.767 15.713h-2.452c-2.52 0-4.57 2.177-4.57 4.852zm19.774 38.098c0 .606-.483 1.119-1.055 1.119H28.262c-.571 0-1.054-.513-1.054-1.119V75.239c0-.607.483-1.12 1.054-1.12h14.149c.572 0 1.055.513 1.055 1.12v38.098zm64.324 0c0 .606-.483 1.119-1.054 1.119h-14.15c-.571 0-1.054-.513-1.054-1.119V75.239c0-.607.483-1.12 1.054-1.12h14.15c.571 0 1.054.513 1.054 1.12v38.098z"/></mask><path d="M118.242 91.153c.971 0 1.758-.835 1.758-1.866V85.68c0-3.648-2.624-6.616-5.849-6.616h-2.845V75.24c0-2.675-2.051-4.852-4.571-4.852H92.586c-2.52 0-4.57 2.177-4.57 4.852v9.957c-12.64-1.565-28.373-1.567-41.034 0V75.24c0-2.675-2.05-4.852-4.57-4.852h-1.119c9.637-6.229 20.413-14.676 28.816-22.902l5.518 8.052c1.484 2.167 4.35 2.64 6.385 1.07l11.442-8.835c2.038-1.573 2.49-4.614 1.007-6.778l-2.118-3.092 2.3-1.776c2.609-2.014 3.086-6.053 1.065-9.003l-9.542-13.925c-2.022-2.95-5.788-3.712-8.396-1.698l-2.3 1.777-2.12-3.092c-1.482-2.164-4.346-2.643-6.384-1.07L55.523 17.95c-2.038 1.573-2.49 4.614-1.007 6.777l5.517 8.052C48.941 39.41 36.22 49.23 26.85 58.403l-4.058-5.923c-2.286-3.335-6.708-4.077-9.85-1.65L5.51 56.566c-3.144 2.428-3.841 7.119-1.554 10.456l.66.963-2.301 1.776c-2.66 2.054-3.045 6.113-1.065 9.003l9.542 13.924c1.044 1.524 2.574 2.493 4.205 2.75v7.459c0 3.648 2.625 6.617 5.85 6.617h2.845v3.823c0 2.675 2.05 4.852 4.57 4.852h14.15c2.52 0 4.57-2.177 4.57-4.852v-9.956c4.995.617 10.611 1.005 16.38 1.128h.036c.954 0 1.737-.811 1.757-1.828.02-1.031-.752-1.883-1.723-1.903-5.816-.125-11.466-.522-16.45-1.155v-10.67c12.435-1.583 28.34-1.615 41.034 0v10.67c-4.984.633-10.635 1.03-16.45 1.155-.971.02-1.743.872-1.723 1.902.02 1.018.802 1.829 1.757 1.829h.036c5.768-.123 11.384-.511 16.38-1.128v9.956c0 2.675 2.05 4.852 4.57 4.852h14.149c2.521 0 4.571-2.177 4.571-4.852v-3.823h2.845c3.225 0 5.849-2.969 5.849-6.617v-4.901c0-1.03-.787-1.866-1.758-1.866s-1.758.835-1.758 1.866v4.901c0 1.563-1.068 2.884-2.333 2.884h-2.845V82.795h2.845c1.265 0 2.333 1.32 2.333 2.884v3.609c0 1.03.787 1.865 1.758 1.865zM79.838 14.518c1.022-.789 2.619-.389 3.485.875l9.541 13.925c.866 1.264.734 3-.289 3.79l-2.3 1.776-12.738-18.59 2.3-1.776zm-22.479 8.014c-.336-.49-.23-1.207.233-1.564l11.442-8.835a1.029 1.029 0 011.473.247l17.958 26.21.001.001 3.152 4.6c.336.49.23 1.207-.233 1.564L79.943 53.59a1.023 1.023 0 01-1.473-.247l-21.111-30.81zm4.756 13.286l5.913 8.629c-9.146 9.01-21.974 18.971-33.185 25.62l-5.912-8.627c9.12-8.987 21.957-18.963 33.184-25.622zm-47.118 49.86v5.924a3.017 3.017 0 01-1.361-1.109L4.094 76.568c-.906-1.321-.703-3.022.29-3.789l2.3-1.776L15.3 83.58a7.491 7.491 0 00-.304 2.099zm8.695 20.103h-2.845c-1.265 0-2.334-1.321-2.334-2.884V85.678c0-.651.203-1.355.604-1.908.479-.66 1.125-.975 1.73-.975h2.844v22.986zm0-30.542v3.823h-2.845a5.147 5.147 0 00-.5.026 5.425 5.425 0 00-2.93 1.235L6.8 64.826c-1.147-1.672-.797-4.024.78-5.241l7.43-5.738c1.57-1.212 3.796-.84 4.938.827l10.767 15.713h-2.452c-2.52 0-4.57 2.177-4.57 4.852zm19.774 38.098c0 .606-.483 1.119-1.055 1.119H28.262c-.571 0-1.054-.513-1.054-1.119V75.239c0-.607.483-1.12 1.054-1.12h14.149c.572 0 1.055.513 1.055 1.12v38.098zm64.324 0c0 .606-.483 1.119-1.054 1.119h-14.15c-.571 0-1.054-.513-1.054-1.119V75.239c0-.607.483-1.12 1.054-1.12h14.15c.571 0 1.054.513 1.054 1.12v38.098z" fill="#CAA960" fill-opacity=".5"/><path d="M118.242 91.153c.971 0 1.758-.835 1.758-1.866V85.68c0-3.648-2.624-6.616-5.849-6.616h-2.845V75.24c0-2.675-2.051-4.852-4.571-4.852H92.586c-2.52 0-4.57 2.177-4.57 4.852v9.957c-12.64-1.565-28.373-1.567-41.034 0V75.24c0-2.675-2.05-4.852-4.57-4.852h-1.119c9.637-6.229 20.413-14.676 28.816-22.902l5.518 8.052c1.484 2.167 4.35 2.64 6.385 1.07l11.442-8.835c2.038-1.573 2.49-4.614 1.007-6.778l-2.118-3.092 2.3-1.776c2.609-2.014 3.086-6.053 1.065-9.003l-9.542-13.925c-2.022-2.95-5.788-3.712-8.396-1.698l-2.3 1.777-2.12-3.092c-1.482-2.164-4.346-2.643-6.384-1.07L55.523 17.95c-2.038 1.573-2.49 4.614-1.007 6.777l5.517 8.052C48.941 39.41 36.22 49.23 26.85 58.403l-4.058-5.923c-2.286-3.335-6.708-4.077-9.85-1.65L5.51 56.566c-3.144 2.428-3.841 7.119-1.554 10.456l.66.963-2.301 1.776c-2.66 2.054-3.045 6.113-1.065 9.003l9.542 13.924c1.044 1.524 2.574 2.493 4.205 2.75v7.459c0 3.648 2.625 6.617 5.85 6.617h2.845v3.823c0 2.675 2.05 4.852 4.57 4.852h14.15c2.52 0 4.57-2.177 4.57-4.852v-9.956c4.995.617 10.611 1.005 16.38 1.128h.036c.954 0 1.737-.811 1.757-1.828.02-1.031-.752-1.883-1.723-1.903-5.816-.125-11.466-.522-16.45-1.155v-10.67c12.435-1.583 28.34-1.615 41.034 0v10.67c-4.984.633-10.635 1.03-16.45 1.155-.971.02-1.743.872-1.723 1.902.02 1.018.802 1.829 1.757 1.829h.036c5.768-.123 11.384-.511 16.38-1.128v9.956c0 2.675 2.05 4.852 4.57 4.852h14.149c2.521 0 4.571-2.177 4.571-4.852v-3.823h2.845c3.225 0 5.849-2.969 5.849-6.617v-4.901c0-1.03-.787-1.866-1.758-1.866s-1.758.835-1.758 1.866v4.901c0 1.563-1.068 2.884-2.333 2.884h-2.845V82.795h2.845c1.265 0 2.333 1.32 2.333 2.884v3.609c0 1.03.787 1.865 1.758 1.865zM79.838 14.518c1.022-.789 2.619-.389 3.485.875l9.541 13.925c.866 1.264.734 3-.289 3.79l-2.3 1.776-12.738-18.59 2.3-1.776zm-22.479 8.014c-.336-.49-.23-1.207.233-1.564l11.442-8.835a1.029 1.029 0 011.473.247l17.958 26.21.001.001 3.152 4.6c.336.49.23 1.207-.233 1.564L79.943 53.59a1.023 1.023 0 01-1.473-.247l-21.111-30.81zm4.756 13.286l5.913 8.629c-9.146 9.01-21.974 18.971-33.185 25.62l-5.912-8.627c9.12-8.987 21.957-18.963 33.184-25.622zm-47.118 49.86v5.924a3.017 3.017 0 01-1.361-1.109L4.094 76.568c-.906-1.321-.703-3.022.29-3.789l2.3-1.776L15.3 83.58a7.491 7.491 0 00-.304 2.099zm8.695 20.103h-2.845c-1.265 0-2.334-1.321-2.334-2.884V85.678c0-.651.203-1.355.604-1.908.479-.66 1.125-.975 1.73-.975h2.844v22.986zm0-30.542v3.823h-2.845a5.147 5.147 0 00-.5.026 5.425 5.425 0 00-2.93 1.235L6.8 64.826c-1.147-1.672-.797-4.024.78-5.241l7.43-5.738c1.57-1.212 3.796-.84 4.938.827l10.767 15.713h-2.452c-2.52 0-4.57 2.177-4.57 4.852zm19.774 38.098c0 .606-.483 1.119-1.055 1.119H28.262c-.571 0-1.054-.513-1.054-1.119V75.239c0-.607.483-1.12 1.054-1.12h14.149c.572 0 1.055.513 1.055 1.12v38.098zm64.324 0c0 .606-.483 1.119-1.054 1.119h-14.15c-.571 0-1.054-.513-1.054-1.119V75.239c0-.607.483-1.12 1.054-1.12h14.15c.571 0 1.054.513 1.054 1.12v38.098z" stroke="#CAA960" stroke-opacity=".5" stroke-width="2" mask="url(#path-1-outside-1)"/></g><defs><clipPath id="clip0"><path fill="#fff" d="M0 0h120v120H0z"/></clipPath></defs></svg>