<svg width="40" height="40" fill="none" xmlns="http://www.w3.org/2000/svg"><path d="M11.988 20.492c-1.544.134-2.46.676-2.524.715a.39.39 0 10.406.667c.015-.009.92-.543 2.464-.617.138.29.277.562.413.817-1.075.145-2.002.493-2.723 1.03a.39.39 0 10.468.627c.783-.585 1.753-.835 2.67-.918.163.278.314.52.444.718a5.87 5.87 0 00-2.537 1.441.39.39 0 10.542.563 5.125 5.125 0 012.473-1.31 3.38 3.38 0 001.375 1.207 3.662 3.662 0 001.028 2.25c.798.8 1.974 1.204 3.497 1.204h.032c1.523 0 2.699-.404 3.497-1.204a3.661 3.661 0 001.028-2.25 3.376 3.376 0 001.414-1.267 5.181 5.181 0 012.756 1.37.39.39 0 10.542-.563 5.894 5.894 0 00-2.814-1.51c.123-.19.262-.415.412-.67 1.004.051 2.107.288 2.979.938a.39.39 0 00.467-.626c-.787-.587-1.82-.948-3.025-1.065.132-.249.267-.515.401-.795 1.702.006 2.714.592 2.78.631a.39.39 0 00.405-.668c-.07-.042-1.105-.654-2.837-.735.164-.386.32-.792.463-1.212 1.105-3.257.846-5.969-.75-7.842-1.247-1.464-2.517-2.234-3.773-2.29-1.035-.046-2.022.386-2.932 1.281-.438.431-.795.79-1.023 1.022l-1.035-1.022c-.91-.895-1.898-1.327-2.932-1.281-1.257.055-2.526.826-3.774 2.29-1.596 1.873-1.855 4.585-.75 7.842.146.428.306.84.473 1.232zm1.593 1.48c-.121-.22-.246-.455-.371-.705.171.011.348.028.53.053a3.08 3.08 0 00-.16.652zm9.372 5.166c-.607.602-1.512.924-2.697.962a8.308 8.308 0 01-.511 0c-1.186-.039-2.091-.36-2.698-.962a2.827 2.827 0 01-.756-1.426 3.374 3.374 0 002.113-.259 8.275 8.275 0 001.619-1.046c.475.417 1.004.77 1.574 1.046a3.374 3.374 0 002.112.259 2.827 2.827 0 01-.756 1.426zm-3.676-5.549c-.69-.216-1.233-.48-1.625-.79.093-.15.273-.374.532-.421.317-.058.726.157 1.186.62.014.036.032.07.055.1a.39.39 0 00.549.064c.713-.563 1.315-.792 1.74-.663a.91.91 0 01.49.408c-.399.279-.928.517-1.587.715a.39.39 0 00-.267.467.334.334 0 01-.023.223c-.01.016-.039.062-.16.088a.678.678 0 00-.176.065c-.213-.045-.33-.112-.366-.166a.12.12 0 01-.01-.107.503.503 0 00-.338-.602zm7.143.383a3.084 3.084 0 00-.145-.607c.172-.03.34-.054.503-.072-.121.24-.242.467-.358.68zM12.86 11.925c1.102-1.293 2.182-1.971 3.213-2.016.81-.037 1.6.32 2.35 1.057.777.765 1.31 1.296 1.311 1.296a.39.39 0 00.552-.002l.003-.003c.005-.006.522-.538 1.288-1.291.75-.737 1.54-1.094 2.35-1.058 1.03.046 2.111.724 3.213 2.016 1.427 1.676 1.63 4.06.604 7.085a16.65 16.65 0 01-.579 1.467 9.01 9.01 0 00-1.26.162 3.36 3.36 0 00-.39-.466l.079-.587c.054-.412-.03-.83-.24-1.19l-.855-1.464a.392.392 0 00-.651-.042.39.39 0 00-.024.436l.856 1.465c.122.21.171.453.14.692l-.018.135a2.65 2.65 0 00-.292-.154.393.393 0 00-.512.207.393.393 0 00.206.512c.232.112.446.256.636.429l.006.005c.08.071.155.147.226.228-.411.12-.815.264-1.21.431a.39.39 0 10.304.72 10.2 10.2 0 011.335-.46c.063.157.108.321.135.489-.58.037-1.156.125-1.721.26a.39.39 0 00.198.756 9.748 9.748 0 011.524-.23 2.524 2.524 0 01-.132.507 6.13 6.13 0 00-1.615.065.39.39 0 10.159.765c.33-.055.666-.078 1-.067a2.645 2.645 0 01-3.121.667 6.47 6.47 0 01-1.526-1.045v-.555a.973.973 0 00.586-.42.987.987 0 00.147-.45c.75-.252 1.348-.568 1.795-.946a2.666 2.666 0 00.827-1.145c.406-1.14-.202-2.174-.398-2.464-.294-.434-.428-1.326-.455-1.634a.39.39 0 00-.57-.317.393.393 0 00-.208.384c.011.133.125 1.324.586 2.005.102.151.6.948.309 1.763-.058.16-.14.308-.242.443a1.633 1.633 0 00-.827-.61c-.616-.193-1.341-.002-2.158.567-.615-.575-1.206-.815-1.758-.712a1.55 1.55 0 00-.922.597 1.621 1.621 0 01-.139-.293c-.283-.812.21-1.604.313-1.755.46-.68.574-1.871.586-2.005a.391.391 0 00-.779-.067c-.026.308-.16 1.2-.454 1.634-.195.288-.8 1.315-.403 2.45.318.911 1.189 1.614 2.59 2.093.003.17.056.334.151.475.135.197.351.342.643.434v.55a7.623 7.623 0 01-1.55 1.023 2.646 2.646 0 01-3.107-.65 5.465 5.465 0 011.308.05.39.39 0 00.158-.765 6.306 6.306 0 00-1.923-.032 2.53 2.53 0 01-.149-.56c.623.025 1.242.11 1.849.25a.39.39 0 10.198-.756 10.39 10.39 0 00-2.04-.278c.031-.187.085-.37.161-.542.557.13 1.102.307 1.628.53a.39.39 0 10.304-.719c-.477-.202-.968-.37-1.469-.504a2.73 2.73 0 01.189-.18c.185-.165.393-.302.617-.409a.39.39 0 10-.306-.718c-.1.045-.197.096-.291.153l-.018-.134c-.032-.24.017-.483.139-.692l.856-1.466a.39.39 0 10-.674-.394l-.857 1.465c-.209.36-.293.778-.239 1.19l.079.586a3.345 3.345 0 00-.353.414 8.767 8.767 0 00-1.303-.122 16.92 16.92 0 01-.573-1.454c-1.027-3.026-.823-5.41.604-7.085z" fill="url(#paint0_linear)"/><path d="M22.72 15.627a.39.39 0 00.416-.213 1.8 1.8 0 001.007.308 1.56 1.56 0 00.781-.201 1.677 1.677 0 00.83-1.524c.074.017.118.03.122.03a.39.39 0 00.23-.746c-.062-.02-1.547-.466-2.648.208-.567.348-.922.915-1.056 1.686a.391.391 0 00.318.452zm1.144-1.47c.331-.204.733-.26 1.09-.258a.9.9 0 01-.42.946.89.89 0 01-.677.054.963.963 0 01-.45-.272c.111-.192.268-.354.457-.47z" fill="url(#paint1_linear)"/><path d="M14.123 14.028c.003 0 .047-.014.123-.031a1.677 1.677 0 00.83 1.524c.238.134.507.204.78.201a1.821 1.821 0 001.008-.307.389.389 0 00.734-.239c-.134-.771-.49-1.338-1.056-1.686-1.101-.675-2.585-.228-2.649-.208a.39.39 0 00.23.747zm.923-.129c.357-.003.759.054 1.09.258.189.117.346.278.457.47a.964.964 0 01-.45.272.846.846 0 01-1.097-1z" fill="url(#paint2_linear)"/><path d="M17.391 22.79a.39.39 0 100-.782.39.39 0 000 .781z" fill="url(#paint3_linear)"/><path d="M17.392 23.936a.39.39 0 10-.002-.778.39.39 0 00.002.778z" fill="url(#paint4_linear)"/><path d="M18.373 23.445a.391.391 0 100-.783.391.391 0 000 .783z" fill="url(#paint5_linear)"/><path d="M22.93 22.008a.39.39 0 100 .78.39.39 0 000-.78z" fill="url(#paint6_linear)"/><path d="M22.93 23.155a.392.392 0 10-.003.783.392.392 0 00.003-.783z" fill="url(#paint7_linear)"/><path d="M21.948 22.663a.39.39 0 100 .78.39.39 0 000-.78z" fill="url(#paint8_linear)"/><path d="M3.252 20.02a.39.39 0 00.673.18.39.39 0 00.097-.224h.001c.04-.435.228-.89.558-1.357-.23 1.723-.253 4.325.5 7.372v.002a.39.39 0 00.76-.187c-.11-.45-.078-1.05.091-1.77 0 .133.003.268.008.407.066 1.881.59 4.648 2.712 7.147a.39.39 0 00.642-.436c-.207-.39-.229-1.086-.066-1.985.026.17.056.343.092.52.404 2.033 1.281 3.53 2.534 4.328a.39.39 0 00.555-.51h.001a5.538 5.538 0 01-.487-1.468c.558 1.333 1.452 2.807 2.879 3.962a.39.39 0 00.572-.515l.001-.001c-.174-.27-.276-.627-.329-1.014.413 1.074 1.064 2.266 2.067 3.058a.39.39 0 00.63-.338 4.05 4.05 0 01-.006-.452c.42 1.394 1.081 2.43 1.969 3.086a.496.496 0 00.591 0c.872-.645 1.547-1.704 1.964-3.08.006.149.004.298-.007.446a.39.39 0 00.632.338c1.002-.792 1.653-1.984 2.066-3.058-.053.387-.155.745-.33 1.014h.002a.39.39 0 00.572.516c1.427-1.155 2.321-2.629 2.88-3.962a5.538 5.538 0 01-.488 1.468h.001a.39.39 0 00.555.51c1.253-.799 2.13-2.295 2.534-4.327.036-.178.066-.352.092-.52.163.898.141 1.593-.066 1.983a.39.39 0 00.642.436c2.122-2.498 2.646-5.265 2.712-7.147.005-.138.008-.273.008-.405.17.718.202 1.32.092 1.769a.391.391 0 00.758.186v-.003c.754-3.046.731-5.648.502-7.37.33.466.517.922.557 1.357h.002a.39.39 0 00.77.044c.722-3.473-.617-6.708-1.616-8.512l1.217.762a.39.39 0 00.576-.46c-1.146-3.323-2.588-5.362-3.627-6.507-.124-1.447-.77-2.002-1.346-2.203-.508-.178-1.063-.134-1.607.03a6.914 6.914 0 00-.219-.087l1.647-.376a.39.39 0 00.063-.741c-.126-.053-2.427-.99-5.063-.703L27.431.8a.39.39 0 00-.198-.72c-.208-.006-5.123-.151-7.277 1.942C17.806-.07 12.97.075 12.766.082a.391.391 0 00-.196.72l.658.421c-2.636-.287-4.937.65-5.063.703a.39.39 0 00.064.742l1.646.376a8.11 8.11 0 00-.237.093C9.106 2.97 8.56 2.922 8.05 3.1c-.925.323-1.264 1.249-1.347 2.21-1.038 1.141-2.48 3.177-3.629 6.501a.39.39 0 00.577.459l1.216-.761c-.999 1.803-2.338 5.038-1.615 8.511zM33.289 6.505c.778.993 1.688 2.446 2.503 4.494L34.147 9.97a17.281 17.281 0 00-1.22-1.395c.177-.679.298-1.37.362-2.07zm-1.596-2.667c1.142.398.883 2.74.583 4.107a15.69 15.69 0 00-.468-.413c.473-.957.319-2.18-.394-2.678-.388-.271-.937-.303-1.506-.087-.424.167-.803.43-1.105.77a13.436 13.436 0 00-.568-.267c.876-.743 2.427-1.793 3.458-1.432zm-.514 3.186a15.044 15.044 0 00-1.661-1.104 2.06 2.06 0 01.666-.422c.32-.121.612-.123.783-.003.329.229.445.917.212 1.53zM8.307 3.838c1.03-.36 2.525.722 3.356 1.478a13.7 13.7 0 00-.433.206 2.864 2.864 0 00-1.127-.766c-.576-.209-1.129-.173-1.517.097-.703.491-.836 1.68-.349 2.641a16.2 16.2 0 00-.518.456c-.3-1.369-.556-3.713.588-4.112zm2.204 2.066c-.571.326-1.12.69-1.645 1.087-.247-.61-.15-1.274.167-1.496.174-.122.475-.123.804-.004.25.093.479.233.674.413zM4.208 11c.814-2.046 1.724-3.496 2.501-4.486a12.9 12.9 0 00.36 2.067c-.43.442-.835.906-1.215 1.39L4.208 11zm2.219-.495c2.485-3.188 5.284-4.46 6.732-4.936a.39.39 0 00-.243-.742 11.9 11.9 0 00-.463.163 9.672 9.672 0 00-1.783-1.381 4.48 4.48 0 01.99-.168.39.39 0 00.083-.771l-1.898-.434c1.388-.315 3.602-.553 5.597.404a.39.39 0 00.38-.681L14.169.898c1.54.102 3.983.46 5.242 1.686a.775.775 0 001.086 0c1.268-1.23 3.772-1.587 5.336-1.687l-1.655 1.06a.39.39 0 00.38.682c1.995-.957 4.209-.72 5.597-.404l-1.898.434a.39.39 0 00.083.771 4.4 4.4 0 01.935.153 10.26 10.26 0 00-1.85 1.351 11.58 11.58 0 00-.34-.118.39.39 0 00-.244.742c1.448.475 4.248 1.748 6.733 4.937.056.074 2.724 3.647 2.59 7.82a5.52 5.52 0 00-.412-.55 14.06 14.06 0 01-1.59-2.337 8.276 8.276 0 00-3.241-3.273.39.39 0 10-.38.683 7.496 7.496 0 012.936 2.964c.256.469.535.924.838 1.364.075.226.361 1.183.443 2.851a18.92 18.92 0 01-.117 3.157 14.316 14.316 0 00-.985-2.347.39.39 0 00-.717.3c.005.013.41 1.393.339 3.307-.076 2.011-.624 3.827-1.63 5.42-.09-1.383-.666-2.88-.758-3.111a.39.39 0 00-.753.163c.021.885-.055 1.77-.227 2.638-.17.846-.489 1.882-1.086 2.731.385-1.819.172-3.735.16-3.84a.39.39 0 00-.389-.345h-.008a.39.39 0 00-.382.36c-.002.039-.288 3.385-2.455 5.915.12-1.197-.133-2.418-.149-2.492a.39.39 0 00-.769.03c-.004.03-.386 2.722-1.814 4.403-.069-.73-.18-1.457-.333-2.174a.39.39 0 00-.772.073c0 .034-.105 3.326-1.91 4.848-1.803-1.52-1.916-4.815-1.917-4.849a.39.39 0 00-.772-.072 19.099 19.099 0 00-.333 2.174c-1.428-1.681-1.81-4.373-1.814-4.404a.391.391 0 00-.769-.029c-.015.074-.27 1.294-.148 2.492-2.167-2.53-2.453-5.876-2.456-5.914a.391.391 0 00-.777-.016c-.012.104-.226 2.021.16 3.84-.598-.85-.917-1.885-1.087-2.731a12.102 12.102 0 01-.227-2.638.39.39 0 00-.753-.163c-.092.231-.668 1.728-.758 3.11-1.006-1.592-1.554-3.408-1.63-5.42-.071-1.913.335-3.293.339-3.306a.39.39 0 00-.717-.3 14.33 14.33 0 00-.985 2.347 18.88 18.88 0 01-.117-3.157c.082-1.668.368-2.626.443-2.851.303-.44.583-.895.839-1.364a7.496 7.496 0 012.935-2.964.39.39 0 10-.38-.683 8.278 8.278 0 00-3.241 3.273c-.45.83-.983 1.613-1.59 2.337a5.538 5.538 0 00-.411.55c-.132-4.168 2.534-7.747 2.59-7.82z" fill="url(#paint9_linear)"/><defs><linearGradient id="paint0_linear" x1="20.161" y1="9.125" x2="20.161" y2="28.886" gradientUnits="userSpaceOnUse"><stop offset=".62" stop-color="#CAA960"/><stop offset=".859" stop-color="#F3D48E"/></linearGradient><linearGradient id="paint1_linear" x1="24.387" y1="13.118" x2="24.387" y2="15.722" gradientUnits="userSpaceOnUse"><stop offset=".62" stop-color="#CAA960"/><stop offset=".859" stop-color="#F3D48E"/></linearGradient><linearGradient id="paint2_linear" x1="15.613" y1="13.119" x2="15.613" y2="15.722" gradientUnits="userSpaceOnUse"><stop offset=".62" stop-color="#CAA960"/><stop offset=".859" stop-color="#F3D48E"/></linearGradient><linearGradient id="paint3_linear" x1="17.391" y1="22.008" x2="17.391" y2="22.789" gradientUnits="userSpaceOnUse"><stop offset=".62" stop-color="#CAA960"/><stop offset=".859" stop-color="#F3D48E"/></linearGradient><linearGradient id="paint4_linear" x1="17.39" y1="23.157" x2="17.39" y2="23.936" gradientUnits="userSpaceOnUse"><stop offset=".62" stop-color="#CAA960"/><stop offset=".859" stop-color="#F3D48E"/></linearGradient><linearGradient id="paint5_linear" x1="18.373" y1="22.663" x2="18.373" y2="23.445" gradientUnits="userSpaceOnUse"><stop offset=".62" stop-color="#CAA960"/><stop offset=".859" stop-color="#F3D48E"/></linearGradient><linearGradient id="paint6_linear" x1="22.93" y1="22.008" x2="22.93" y2="22.789" gradientUnits="userSpaceOnUse"><stop offset=".62" stop-color="#CAA960"/><stop offset=".859" stop-color="#F3D48E"/></linearGradient><linearGradient id="paint7_linear" x1="22.929" y1="23.155" x2="22.929" y2="23.939" gradientUnits="userSpaceOnUse"><stop offset=".62" stop-color="#CAA960"/><stop offset=".859" stop-color="#F3D48E"/></linearGradient><linearGradient id="paint8_linear" x1="21.948" y1="22.663" x2="21.948" y2="23.445" gradientUnits="userSpaceOnUse"><stop offset=".62" stop-color="#CAA960"/><stop offset=".859" stop-color="#F3D48E"/></linearGradient><linearGradient id="paint9_linear" x1="19.999" y1=".077" x2="19.999" y2="39.922" gradientUnits="userSpaceOnUse"><stop offset=".62" stop-color="#CAA960"/><stop offset=".859" stop-color="#F3D48E"/></linearGradient></defs></svg>