<svg width="120" height="120" fill="none" xmlns="http://www.w3.org/2000/svg"><mask id="path-1-outside-1" maskUnits="userSpaceOnUse" x="28.802" y="8.583" width="73" height="63" fill="#000"><path fill="#fff" d="M28.802 8.583h73v63h-73z"/><path d="M92.118 24.169a12.809 12.809 0 00-.557-2.977c-1.113-3.55-3.655-6.434-7.157-8.123-3.01-1.45-5.894-1.92-8.792-1.434a7.756 7.756 0 00-3.588-1.863 7.943 7.943 0 00-6.949 1.77c-5.545-2.62-9.687-1.734-12.233-.475a12.41 12.41 0 00-3.902 3.05c-3.795-.482-6.862.222-9.126 2.099-2.61 2.165-3.362 5.278-3.578 6.833a7.275 7.275 0 00-3.763 3.883 6.671 6.671 0 00-.293 4.073c-1.597 1.973-2.378 4.34-2.378 7.214 0 1.672.365 3.325 1.068 4.842a1.406 1.406 0 002.552-1.178 8.735 8.735 0 01-.807-3.665c0-1.736.322-3.146 1.017-4.377a7.609 7.609 0 003.356 2.274 1.406 1.406 0 00.907-2.663 4.549 4.549 0 01-2.726-2.38 3.895 3.895 0 01-.083-3.1c.905-2.27 3.674-3.425 6.174-2.574a1.406 1.406 0 00.906-2.662 7.967 7.967 0 00-2.917-.417c.317-1.21.984-2.806 2.38-3.954 1.77-1.456 4.356-1.91 7.688-1.35a1.418 1.418 0 001.41-.619c.177-.267 4.226-6.196 12.618-2.553-.179.38-.322.776-.427 1.182a1.405 1.405 0 102.723.703c.603-2.338 3.195-3.777 5.778-3.209a4.763 4.763 0 013.046 2.1 3.92 3.92 0 01.473 3.053 1.407 1.407 0 002.723.703 6.672 6.672 0 00-.245-4.108c1.876-.074 3.748.363 5.766 1.336 2.795 1.348 4.817 3.632 5.695 6.431a9.972 9.972 0 01-.874 7.96 1.405 1.405 0 001.602 2.045 1.406 1.406 0 00.847-.663 13.09 13.09 0 001.537-4.351c2.24-.357 4.575.803 5.372 2.804a3.895 3.895 0 01-.083 3.1 4.55 4.55 0 01-2.726 2.38 1.408 1.408 0 00-.651 2.29 1.407 1.407 0 001.558.37 7.748 7.748 0 001.289-.577c.516 1.71.144 3.853-1.086 5.822-.197.314-.42.61-.669.883a1.372 1.372 0 00-.129.135c-1.941 2.023-5.12 2.714-7.633 2.153a4.758 4.758 0 00-.934-5.369 1.406 1.406 0 00-2.021 1.956 2.008 2.008 0 01.588 1.515 2.07 2.07 0 01-.78 1.48 2.71 2.71 0 01-3.566-.176 1.407 1.407 0 10-2.021 1.955 5.428 5.428 0 003.906 1.613 5.528 5.528 0 002.71-.703c1.226.48 2.53.72 3.846.71a11.922 11.922 0 004.117-.74c-3.115 5.442-8.775 6.235-9.066 6.272a1.406 1.406 0 00.339 2.792 14.781 14.781 0 003.753-1.107c1.317 1.707 4.15 6.004 3.55 10.747a.311.311 0 01-.268.117h-3.057a.362.362 0 01-.288-.114c-1.069-4.307-6.558-7.148-11.339-8.37-1.617-.413-2.569-1.344-2.913-2.846a5.901 5.901 0 01-.137-1.444 17.1 17.1 0 003.785-.878 1.405 1.405 0 10-.935-2.653c-5.823 2.053-9.859-.38-10.02-.48a1.407 1.407 0 00-1.907.381c-1.131 1.619-3.878 2.379-4.86 2.538-3.034.526-5.737-.051-7.611-1.628-1.305-1.098-2.053-2.592-2.053-4.1a5.893 5.893 0 011.672-4.072 1.407 1.407 0 10-2.033-1.94c-.302.316-.58.653-.834 1.01-1.65-.917-3.87-1.31-4.702-1.43a1.406 1.406 0 00-.406 2.783c1.507.221 3.085.712 3.865 1.162-.15.49-.255.992-.314 1.5a11.277 11.277 0 01-7.202.467 1.39 1.39 0 00-1.425.465 1.405 1.405 0 00.718 2.257c2.67.71 5.49.617 8.107-.265a8.545 8.545 0 002.797 4.316c1.94 1.632 4.47 2.48 7.284 2.48.871-.002 1.74-.079 2.597-.23.167-.026 3.668-.601 5.898-2.759a14.477 14.477 0 004.764 1.14 8.76 8.76 0 00.185 1.893c.55 2.581 2.32 4.378 4.985 5.059 4.941 1.263 8.68 3.804 9.305 6.322a3.052 3.052 0 003.018 2.25h3.058a3.03 3.03 0 003.056-2.574c.69-5.45-2.18-10.217-3.833-12.453 2.45-1.614 5.316-4.48 6.604-9.402.307-.353.586-.73.835-1.126 1.921-3.076 2.253-6.577.955-9.244a6.98 6.98 0 00.83-1.357 6.675 6.675 0 00.14-5.319c-1.228-3.082-4.516-4.912-7.855-4.617z"/></mask><path d="M92.118 24.169a12.809 12.809 0 00-.557-2.977c-1.113-3.55-3.655-6.434-7.157-8.123-3.01-1.45-5.894-1.92-8.792-1.434a7.756 7.756 0 00-3.588-1.863 7.943 7.943 0 00-6.949 1.77c-5.545-2.62-9.687-1.734-12.233-.475a12.41 12.41 0 00-3.902 3.05c-3.795-.482-6.862.222-9.126 2.099-2.61 2.165-3.362 5.278-3.578 6.833a7.275 7.275 0 00-3.763 3.883 6.671 6.671 0 00-.293 4.073c-1.597 1.973-2.378 4.34-2.378 7.214 0 1.672.365 3.325 1.068 4.842a1.406 1.406 0 002.552-1.178 8.735 8.735 0 01-.807-3.665c0-1.736.322-3.146 1.017-4.377a7.609 7.609 0 003.356 2.274 1.406 1.406 0 00.907-2.663 4.549 4.549 0 01-2.726-2.38 3.895 3.895 0 01-.083-3.1c.905-2.27 3.674-3.425 6.174-2.574a1.406 1.406 0 00.906-2.662 7.967 7.967 0 00-2.917-.417c.317-1.21.984-2.806 2.38-3.954 1.77-1.456 4.356-1.91 7.688-1.35a1.418 1.418 0 001.41-.619c.177-.267 4.226-6.196 12.618-2.553-.179.38-.322.776-.427 1.182a1.405 1.405 0 102.723.703c.603-2.338 3.195-3.777 5.778-3.209a4.763 4.763 0 013.046 2.1 3.92 3.92 0 01.473 3.053 1.407 1.407 0 002.723.703 6.672 6.672 0 00-.245-4.108c1.876-.074 3.748.363 5.766 1.336 2.795 1.348 4.817 3.632 5.695 6.431a9.972 9.972 0 01-.874 7.96 1.405 1.405 0 001.602 2.045 1.406 1.406 0 00.847-.663 13.09 13.09 0 001.537-4.351c2.24-.357 4.575.803 5.372 2.804a3.895 3.895 0 01-.083 3.1 4.55 4.55 0 01-2.726 2.38 1.408 1.408 0 00-.651 2.29 1.407 1.407 0 001.558.37 7.748 7.748 0 001.289-.577c.516 1.71.144 3.853-1.086 5.822-.197.314-.42.61-.669.883a1.372 1.372 0 00-.129.135c-1.941 2.023-5.12 2.714-7.633 2.153a4.758 4.758 0 00-.934-5.369 1.406 1.406 0 00-2.021 1.956 2.008 2.008 0 01.588 1.515 2.07 2.07 0 01-.78 1.48 2.71 2.71 0 01-3.566-.176 1.407 1.407 0 10-2.021 1.955 5.428 5.428 0 003.906 1.613 5.528 5.528 0 002.71-.703c1.226.48 2.53.72 3.846.71a11.922 11.922 0 004.117-.74c-3.115 5.442-8.775 6.235-9.066 6.272a1.406 1.406 0 00.339 2.792 14.781 14.781 0 003.753-1.107c1.317 1.707 4.15 6.004 3.55 10.747a.311.311 0 01-.268.117h-3.057a.362.362 0 01-.288-.114c-1.069-4.307-6.558-7.148-11.339-8.37-1.617-.413-2.569-1.344-2.913-2.846a5.901 5.901 0 01-.137-1.444 17.1 17.1 0 003.785-.878 1.405 1.405 0 10-.935-2.653c-5.823 2.053-9.859-.38-10.02-.48a1.407 1.407 0 00-1.907.381c-1.131 1.619-3.878 2.379-4.86 2.538-3.034.526-5.737-.051-7.611-1.628-1.305-1.098-2.053-2.592-2.053-4.1a5.893 5.893 0 011.672-4.072 1.407 1.407 0 10-2.033-1.94c-.302.316-.58.653-.834 1.01-1.65-.917-3.87-1.31-4.702-1.43a1.406 1.406 0 00-.406 2.783c1.507.221 3.085.712 3.865 1.162-.15.49-.255.992-.314 1.5a11.277 11.277 0 01-7.202.467 1.39 1.39 0 00-1.425.465 1.405 1.405 0 00.718 2.257c2.67.71 5.49.617 8.107-.265a8.545 8.545 0 002.797 4.316c1.94 1.632 4.47 2.48 7.284 2.48.871-.002 1.74-.079 2.597-.23.167-.026 3.668-.601 5.898-2.759a14.477 14.477 0 004.764 1.14 8.76 8.76 0 00.185 1.893c.55 2.581 2.32 4.378 4.985 5.059 4.941 1.263 8.68 3.804 9.305 6.322a3.052 3.052 0 003.018 2.25h3.058a3.03 3.03 0 003.056-2.574c.69-5.45-2.18-10.217-3.833-12.453 2.45-1.614 5.316-4.48 6.604-9.402.307-.353.586-.73.835-1.126 1.921-3.076 2.253-6.577.955-9.244a6.98 6.98 0 00.83-1.357 6.675 6.675 0 00.14-5.319c-1.228-3.082-4.516-4.912-7.855-4.617z" fill="#CAA960" fill-opacity=".5"/><path d="M92.118 24.169a12.809 12.809 0 00-.557-2.977c-1.113-3.55-3.655-6.434-7.157-8.123-3.01-1.45-5.894-1.92-8.792-1.434a7.756 7.756 0 00-3.588-1.863 7.943 7.943 0 00-6.949 1.77c-5.545-2.62-9.687-1.734-12.233-.475a12.41 12.41 0 00-3.902 3.05c-3.795-.482-6.862.222-9.126 2.099-2.61 2.165-3.362 5.278-3.578 6.833a7.275 7.275 0 00-3.763 3.883 6.671 6.671 0 00-.293 4.073c-1.597 1.973-2.378 4.34-2.378 7.214 0 1.672.365 3.325 1.068 4.842a1.406 1.406 0 002.552-1.178 8.735 8.735 0 01-.807-3.665c0-1.736.322-3.146 1.017-4.377a7.609 7.609 0 003.356 2.274 1.406 1.406 0 00.907-2.663 4.549 4.549 0 01-2.726-2.38 3.895 3.895 0 01-.083-3.1c.905-2.27 3.674-3.425 6.174-2.574a1.406 1.406 0 00.906-2.662 7.967 7.967 0 00-2.917-.417c.317-1.21.984-2.806 2.38-3.954 1.77-1.456 4.356-1.91 7.688-1.35a1.418 1.418 0 001.41-.619c.177-.267 4.226-6.196 12.618-2.553-.179.38-.322.776-.427 1.182a1.405 1.405 0 102.723.703c.603-2.338 3.195-3.777 5.778-3.209a4.763 4.763 0 013.046 2.1 3.92 3.92 0 01.473 3.053 1.407 1.407 0 002.723.703 6.672 6.672 0 00-.245-4.108c1.876-.074 3.748.363 5.766 1.336 2.795 1.348 4.817 3.632 5.695 6.431a9.972 9.972 0 01-.874 7.96 1.405 1.405 0 001.602 2.045 1.406 1.406 0 00.847-.663 13.09 13.09 0 001.537-4.351c2.24-.357 4.575.803 5.372 2.804a3.895 3.895 0 01-.083 3.1 4.55 4.55 0 01-2.726 2.38 1.408 1.408 0 00-.651 2.29 1.407 1.407 0 001.558.37 7.748 7.748 0 001.289-.577c.516 1.71.144 3.853-1.086 5.822-.197.314-.42.61-.669.883a1.372 1.372 0 00-.129.135c-1.941 2.023-5.12 2.714-7.633 2.153a4.758 4.758 0 00-.934-5.369 1.406 1.406 0 00-2.021 1.956 2.008 2.008 0 01.588 1.515 2.07 2.07 0 01-.78 1.48 2.71 2.71 0 01-3.566-.176 1.407 1.407 0 10-2.021 1.955 5.428 5.428 0 003.906 1.613 5.528 5.528 0 002.71-.703c1.226.48 2.53.72 3.846.71a11.922 11.922 0 004.117-.74c-3.115 5.442-8.775 6.235-9.066 6.272a1.406 1.406 0 00.339 2.792 14.781 14.781 0 003.753-1.107c1.317 1.707 4.15 6.004 3.55 10.747a.311.311 0 01-.268.117h-3.057a.362.362 0 01-.288-.114c-1.069-4.307-6.558-7.148-11.339-8.37-1.617-.413-2.569-1.344-2.913-2.846a5.901 5.901 0 01-.137-1.444 17.1 17.1 0 003.785-.878 1.405 1.405 0 10-.935-2.653c-5.823 2.053-9.859-.38-10.02-.48a1.407 1.407 0 00-1.907.381c-1.131 1.619-3.878 2.379-4.86 2.538-3.034.526-5.737-.051-7.611-1.628-1.305-1.098-2.053-2.592-2.053-4.1a5.893 5.893 0 011.672-4.072 1.407 1.407 0 10-2.033-1.94c-.302.316-.58.653-.834 1.01-1.65-.917-3.87-1.31-4.702-1.43a1.406 1.406 0 00-.406 2.783c1.507.221 3.085.712 3.865 1.162-.15.49-.255.992-.314 1.5a11.277 11.277 0 01-7.202.467 1.39 1.39 0 00-1.425.465 1.405 1.405 0 00.718 2.257c2.67.71 5.49.617 8.107-.265a8.545 8.545 0 002.797 4.316c1.94 1.632 4.47 2.48 7.284 2.48.871-.002 1.74-.079 2.597-.23.167-.026 3.668-.601 5.898-2.759a14.477 14.477 0 004.764 1.14 8.76 8.76 0 00.185 1.893c.55 2.581 2.32 4.378 4.985 5.059 4.941 1.263 8.68 3.804 9.305 6.322a3.052 3.052 0 003.018 2.25h3.058a3.03 3.03 0 003.056-2.574c.69-5.45-2.18-10.217-3.833-12.453 2.45-1.614 5.316-4.48 6.604-9.402.307-.353.586-.73.835-1.126 1.921-3.076 2.253-6.577.955-9.244a6.98 6.98 0 00.83-1.357 6.675 6.675 0 00.14-5.319c-1.228-3.082-4.516-4.912-7.855-4.617z" stroke="#CAA960" stroke-opacity=".5" stroke-width="2" mask="url(#path-1-outside-1)"/><path d="M58.392 22.762c-2.126 0-3.856 2.005-3.856 4.469 0 2.464 1.73 4.469 3.856 4.469 2.127 0 3.856-2.005 3.856-4.469 0-2.464-1.73-4.469-3.856-4.469zm0 6.125c-.492 0-1.043-.708-1.043-1.656s.55-1.656 1.043-1.656c.493 0 1.044.709 1.044 1.656 0 .948-.551 1.656-1.044 1.656zm19.935-1.656c0-2.464-1.73-4.469-3.857-4.469-2.126 0-3.856 2.005-3.856 4.469 0 2.464 1.73 4.469 3.856 4.469 2.127 0 3.857-2.005 3.857-4.469zm-4.9 0c0-.948.55-1.656 1.043-1.656.493 0 1.044.709 1.044 1.656 0 .948-.55 1.656-1.044 1.656-.492 0-1.043-.708-1.043-1.656z" fill="#CAA960" fill-opacity=".5" stroke="#CAA960" stroke-opacity=".5"/><path d="M59.52 36.76a1.406 1.406 0 10-2.256 1.68 11.69 11.69 0 0018.574.012 1.407 1.407 0 00-2.237-1.705 8.878 8.878 0 01-14.081.012z" fill="#CAA960" fill-opacity=".5"/><path d="M56.864 38.738h0l.003.005a12.192 12.192 0 0019.368.012h0a1.907 1.907 0 00-.36-2.672l-.302.396.302-.396a1.906 1.906 0 00-2.671.36 8.379 8.379 0 01-13.286.014 1.908 1.908 0 00-3.412.867 1.906 1.906 0 00.358 1.414z" stroke="#CAA960" stroke-opacity=".5"/><path d="M110.016 48.742c.735-7.435.544-18.346-4.54-28.104a33.298 33.298 0 00-12.021-13.06c-5.677-3.54-12.705-5.62-20.89-6.181C57.404.36 45.03 2.92 35.786 9.01a37.731 37.731 0 00-14.385 17.8 29.816 29.816 0 00-1.754 15.176 16.532 16.532 0 001.074 4.06 7.496 7.496 0 01-.505 6.679L10.17 69.451a3.485 3.485 0 001.613 4.998l5.677 2.43a.544.544 0 01.069.642L15.297 81.3a2.744 2.744 0 001.289 3.92l2.128.904-1.502 2.565a2.743 2.743 0 001.451 3.974l2.048.724c-.586 3.306-1.597 11.822 2.683 15.452 2.378 2.016 5.836 2.121 10.282.312 5.11-2.078 10.181-4.128 14.707-5.951 1.615 2.246 5.874 8.442 7.437 13.391a3.175 3.175 0 003.032 2.237h43.137a3.167 3.167 0 002.686-1.486 3.172 3.172 0 00.171-3.066c-1.597-3.307-4.469-10.006-5.755-17.707-1.538-9.21-.395-17.078 3.398-23.38 3.885-6.454 6.628-15.364 7.527-24.447zm-13.7 48.29c1.344 8.047 4.335 15.024 5.998 18.467a.367.367 0 01-.152.471.363.363 0 01-.173.045H58.852a.37.37 0 01-.348-.272c-1.58-5.001-5.514-10.914-7.433-13.625a5297.203 5297.203 0 0113.891-5.564 1.406 1.406 0 10-1.04-2.613l-31.305 12.606c-3.396 1.383-5.887 1.432-7.401.149-3.202-2.712-2.18-10.967-1.517-13.919a1.405 1.405 0 00-.903-1.636l-3.115-1.101 1.656-2.83a2.472 2.472 0 00-1.166-3.525l-2.413-1.023 2.192-3.712a3.334 3.334 0 00-.93-4.425 1.4 1.4 0 00-.267-.151l-5.864-2.512a.672.672 0 01-.31-.964l10.049-16.725a10.32 10.32 0 00.694-9.197 13.67 13.67 0 01-.892-3.396 27 27 0 011.588-13.742A34.932 34.932 0 0137.333 11.36c8.717-5.744 20.507-8.151 35.04-7.157 14.703 1.006 25 6.973 30.607 17.735 4.765 9.144 4.934 19.472 4.236 26.527-.845 8.555-3.513 17.254-7.136 23.274-4.149 6.892-5.415 15.402-3.763 25.294z" fill="#CAA960" fill-opacity=".5"/><path d="M65.147 97.019a1.906 1.906 0 00-1.41-3.542h-.002l-31.304 12.606-.002.001c-3.371 1.372-5.608 1.317-6.89.23h0c-.697-.59-1.194-1.509-1.524-2.66-.328-1.146-.477-2.478-.507-3.839-.06-2.722.354-5.482.679-6.927a1.906 1.906 0 00-1.224-2.218s0 0 0 0l-2.545-.9 1.35-2.306a2.972 2.972 0 00-.378-3.517l-.367.339.367-.339a2.973 2.973 0 00-1.024-.722h0l-1.887-.8 1.9-3.218v-.002a3.834 3.834 0 00-1.067-5.087 1.896 1.896 0 00-.362-.204s0 0 0 0l-5.862-2.51a.172.172 0 01-.103-.179.171.171 0 01.023-.069h0L23.056 54.43h0a10.82 10.82 0 00.73-9.643l-.464.19m41.825 52.042l-.185-.465.185.465s0 0 0 0zm0 0c-.095.038-5.571 2.22-13.305 5.328 2.009 2.883 5.59 8.404 7.114 13.168h42.81c-1.69-3.531-4.614-10.443-5.942-18.4-1.666-9.98-.397-18.617 3.828-25.634 3.577-5.944 6.227-14.568 7.067-23.065.693-7.014.517-17.228-4.182-26.247-5.509-10.572-15.626-16.47-30.198-17.467-14.466-.99-26.135 1.412-34.731 7.075A34.431 34.431 0 0024.484 28.02v.001a26.5 26.5 0 00-1.56 13.487l.002.008h0c.144 1.123.433 2.223.86 3.272l-.464.189m0 0a10.318 10.318 0 01-.694 9.196L37.333 11.36a34.932 34.932 0 00-13.315 16.478A27 27 0 0022.43 41.58c.15 1.166.45 2.308.892 3.397zM72.6.898h0C57.369-.144 44.874 2.424 35.51 8.593h0a38.232 38.232 0 00-14.575 18.035 30.318 30.318 0 00-1.784 15.427c.19 1.434.562 2.838 1.107 4.179h0a6.995 6.995 0 01-.47 6.234s0 0 0 0L9.74 69.194a3.985 3.985 0 001.845 5.715h0l5.511 2.36s0 0 0 0v.001l-2.23 3.776a3.246 3.246 0 001.524 4.636h0l1.605.681-1.215 2.074s0 0 0 0a3.243 3.243 0 001.716 4.698h0l1.65.584c-.284 1.725-.614 4.494-.417 7.309.212 3.034 1.043 6.244 3.342 8.193l.323-.381-.323.381c2.587 2.194 6.277 2.232 10.794.394a4653.57 4653.57 0 0114.34-5.803c1.756 2.47 5.67 8.282 7.138 12.929a3.672 3.672 0 003.508 2.588h43.138a3.672 3.672 0 003.307-5.269h0c-1.587-3.287-4.437-9.937-5.712-17.572-1.524-9.126-.383-16.865 3.334-23.04 3.93-6.53 6.691-15.515 7.595-24.656.739-7.476.555-18.5-4.593-28.382A33.795 33.795 0 0093.719 7.154c-5.76-3.593-12.872-5.691-21.12-6.256z" stroke="#CAA960" stroke-opacity=".5"/></svg>