<svg width="120" height="120" fill="none" xmlns="http://www.w3.org/2000/svg"><g clip-path="url(#clip0)" fill="#CAA960" fill-opacity=".5"><path d="M62.968 57.035a2.344 2.344 0 10-3.317 3.314 2.344 2.344 0 003.317-3.314zm29.829-29.831c-4.58-4.58-11.993-4.58-16.573 0-4.568 4.568-4.568 12.002 0 16.573 4.57 4.567 12.004 4.569 16.573 0 4.58-4.58 4.58-11.993 0-16.573zm-3.315 13.258c-2.74 2.74-7.201 2.74-9.943 0-2.741-2.742-2.741-7.203 0-9.944a7.028 7.028 0 019.943 0 7.028 7.028 0 010 9.944z"/><path d="M119.313.686a2.338 2.338 0 00-1.742-.684c-.53.019-13.147.526-28.146 5.827-12.019 4.244-22.037 10.32-29.775 18.058a89.182 89.182 0 00-5.036 5.484c-7.652-4.504-13.784-3.092-17.66-1.018-8.926 4.777-14.45 17.746-14.45 27.023a2.346 2.346 0 004.002 1.657c4.707-4.707 10.512-4.413 12.409-4.163l.82.82c-1.615 3.844-2.916 7.667-3.87 11.384-.345 1.345-.229 2.769.283 4.071-2.256 1.04-4.433 2.567-6.329 4.463-6.033 6.033-7.258 20.736-7.307 21.36a2.344 2.344 0 002.52 2.52c.623-.049 15.327-1.274 21.36-7.307 1.895-1.895 3.422-4.072 4.462-6.328 1.378.542 2.797.609 4.073.282 3.716-.954 7.538-2.255 11.382-3.87l.82.82c.25 1.897.544 7.703-4.162 12.41a2.344 2.344 0 001.657 4c9.276 0 22.246-5.524 27.022-14.45 2.075-3.876 3.487-10.007-1.017-17.66a89.205 89.205 0 005.483-5.036c7.739-7.739 13.815-17.756 18.058-29.774 5.302-15 5.809-27.618 5.828-28.147a2.346 2.346 0 00-.685-1.742zM27.744 50.335c1.456-7.046 5.685-14.778 11.422-17.849 3.834-2.052 8.025-1.85 12.481.589A94.76 94.76 0 0041.8 49.126c-.035-.021-.457-.552-1.24-.728-.323-.073-6.524-1.407-12.816 1.937zm15.334 36.531c-3.223 3.223-10.783 4.922-15.56 5.617.693-4.779 2.393-12.339 5.616-15.56 1.804-1.806 3.897-3.174 6-3.945l7.887 7.888c-.77 2.103-2.138 4.195-3.943 6zm10.685-7.272c-.678.174-1.464-.081-2.048-.664l-4.59-4.59-6.053-6.054c-.585-.585-.84-1.37-.667-2.048a76.099 76.099 0 012.927-8.951l19.381 19.381a76.052 76.052 0 01-8.95 2.926zm33.75 1.24c-3.07 5.737-10.802 9.966-17.847 11.422 2.246-4.228 2.741-9.61 1.92-12.873-.19-.757-.684-1.139-.712-1.183a94.804 94.804 0 0016.051-9.848c2.44 4.457 2.64 8.648.589 12.482zm5.285-23.799a85.079 85.079 0 01-6.76 6.064A90.048 90.048 0 0167.356 74.68L45.319 52.646A90.033 90.033 0 0156.9 33.962a85.036 85.036 0 016.064-6.76c6.944-6.944 15.905-12.47 26.642-16.448l19.638 19.64c-3.977 10.736-9.503 19.697-16.447 26.641zm18.134-31.585L94.55 9.068c8.925-2.772 16.69-3.81 20.565-4.183-.373 3.876-1.411 11.64-4.183 20.565z"/><path d="M56.337 96.808a2.344 2.344 0 00-3.315 0l-6.628 6.631a2.345 2.345 0 003.315 3.314l6.628-6.63c.915-.916.915-2.4 0-3.315zM23.192 63.663a2.344 2.344 0 00-3.314 0l-6.63 6.628a2.344 2.344 0 003.313 3.315l6.63-6.628c.916-.915.916-2.4.001-3.315zm16.572 36.462a2.343 2.343 0 00-3.314 0l-15.877 15.874a2.343 2.343 0 103.315 3.315l15.876-15.875a2.343 2.343 0 000-3.314zm-18.75 0a2.343 2.343 0 00-3.314 0L1.823 115.999a2.343 2.343 0 103.315 3.315l15.876-15.875a2.343 2.343 0 000-3.314zm-1.138-19.89a2.344 2.344 0 00-3.315 0L.687 96.112a2.344 2.344 0 003.315 3.315L19.876 83.55c.915-.915.915-2.4 0-3.315zM72.91 47.09a2.344 2.344 0 00-3.315 0l-3.314 3.314a2.344 2.344 0 003.315 3.315l3.314-3.314c.915-.915.915-2.4 0-3.315z"/></g><defs><clipPath id="clip0"><path fill="#fff" d="M0 0h120v120H0z"/></clipPath></defs></svg>