<svg width="24" height="24" fill="none" xmlns="http://www.w3.org/2000/svg"><path d="M12.236 24.001h-.239a83.412 83.412 0 01-5.31-.146c-1.55-.094-2.964-.63-4.09-1.549-1.088-.886-1.83-2.085-2.208-3.563-.328-1.286-.345-2.548-.362-3.77-.012-.875-.024-1.914-.027-2.97.003-1.06.015-2.098.027-2.974.017-1.22.034-2.483.362-3.77.377-1.477 1.12-2.676 2.207-3.562C3.723.777 5.138.242 6.688.147c1.69-.102 3.429-.15 5.314-.145 1.882-.004 3.62.043 5.31.146 1.55.094 2.964.63 4.091 1.549 1.088.886 1.83 2.085 2.207 3.562.328 1.286.345 2.55.362 3.77.012.876.025 1.914.027 2.97v.005a258.834 258.834 0 01-.027 2.97c-.017 1.22-.034 2.483-.362 3.77-.377 1.477-1.12 2.676-2.207 3.562-1.127.919-2.541 1.455-4.091 1.549a82.996 82.996 0 01-5.076.146zm-.239-1.875c1.85.004 3.55-.042 5.2-.143 1.173-.07 2.189-.451 3.021-1.13.77-.628 1.3-1.493 1.575-2.573.273-1.07.289-2.22.304-3.332.012-.87.024-1.901.027-2.947a265.023 265.023 0 00-.027-2.946c-.015-1.112-.03-2.262-.304-3.332-.276-1.08-.805-1.946-1.575-2.573-.832-.68-1.848-1.06-3.02-1.13a81.571 81.571 0 00-5.196-.143c-1.85-.005-3.55.042-5.2.142-1.173.072-2.189.452-3.021 1.13-.77.628-1.3 1.494-1.575 2.574-.273 1.07-.289 2.22-.304 3.332-.012.87-.024 1.902-.027 2.949.003 1.041.015 2.073.027 2.944.015 1.112.03 2.261.304 3.332.276 1.08.806 1.945 1.575 2.573.832.679 1.848 1.059 3.02 1.13 1.651.1 3.35.148 5.196.143zm-.044-4.265A5.866 5.866 0 016.093 12a5.867 5.867 0 015.86-5.859 5.866 5.866 0 015.859 5.86 5.867 5.867 0 01-5.86 5.859zm0-9.844a3.989 3.989 0 00-3.985 3.984 3.989 3.989 0 003.985 3.985A3.989 3.989 0 0015.937 12a3.989 3.989 0 00-3.984-3.984zm6.515-3.75a1.406 1.406 0 100 2.812 1.406 1.406 0 000-2.812z" fill="url(#paint0_linear)"/><defs><linearGradient id="paint0_linear" x1="11.999" y1=".001" x2="11.999" y2="24.001" gradientUnits="userSpaceOnUse"><stop stop-color="#CAA960"/><stop offset="1" stop-color="#F3D48E"/></linearGradient></defs></svg>