<svg width="50" height="50" fill="none" xmlns="http://www.w3.org/2000/svg"><path d="M49.14 31.386c-.12-2.908-.602-6.132-1.324-9.166-.723-2.908-1.626-5.626-2.71-7.712-4.213-7.775-8.788-6.574-14.267-5.057-1.746.442-3.612.948-5.538 1.138h-.602c-1.927-.19-3.793-.696-5.539-1.138-5.478-1.454-10.053-2.718-14.268 5.12-1.083 2.086-2.046 4.804-2.709 7.712C1.461 25.317.98 28.541.86 31.45c-.12 3.224.18 5.563.843 7.207.662 1.517 1.625 2.465 2.89 2.844 1.143.316 2.468.19 3.852-.442 2.348-1.012 5.057-3.161 7.706-5.753 1.866-1.896 5.358-2.844 8.85-2.844 3.491 0 6.983.948 8.85 2.844 2.648 2.592 5.357 4.741 7.705 5.753 1.385.569 2.71.758 3.853.442 1.204-.38 2.227-1.264 2.89-2.908.662-1.58.963-3.919.842-7.206zm-2.89 6.321c-.36.885-.842 1.391-1.444 1.58-.662.19-1.505.064-2.468-.315-2.107-.885-4.576-2.845-6.984-5.247-2.287-2.402-6.32-3.603-10.354-3.603-4.034 0-8.067 1.2-10.415 3.476-2.468 2.403-4.937 4.425-6.983 5.247-.964.38-1.807.57-2.469.316-.602-.19-1.083-.695-1.445-1.58-.481-1.201-.722-3.16-.602-6.069a45.63 45.63 0 011.265-8.723c.662-2.718 1.505-5.247 2.528-7.143 3.311-6.258 7.164-5.247 11.74-3.983 1.866.506 3.792 1.012 5.9 1.201h.902c2.167-.19 4.094-.695 5.96-1.2 4.575-1.202 8.428-2.276 11.74 3.982 1.023 1.896 1.865 4.361 2.528 7.143.662 2.908 1.143 5.942 1.264 8.723.12 2.908-.12 4.868-.662 6.195z" fill="url(#paint0_linear)" stroke="url(#paint1_linear)"/><path d="M20.33 20.193c-.624-.56-1.371-.997-2.243-1.059a3.544 3.544 0 00-.996-2.18l-.063-.062a3.527 3.527 0 00-2.553-1.059c-.996 0-1.93.436-2.553 1.059-.56.56-.997 1.37-1.059 2.242-.872.062-1.62.436-2.242.997l-.062.062A3.528 3.528 0 007.5 22.746c0 .997.436 1.93 1.059 2.553.622.623 1.37.997 2.304 1.06.062.871.436 1.68 1.059 2.241a3.527 3.527 0 002.553 1.059c.997 0 1.93-.436 2.553-1.059.56-.623.997-1.37 1.06-2.242.871-.062 1.68-.436 2.241-1.059a3.528 3.528 0 001.059-2.553c0-.996-.436-1.93-1.059-2.553zm-1.558 3.487c-.249.25-.56.374-.934.374h-.872c-.623 0-1.183.498-1.183 1.183v.81c0 .373-.125.685-.374.934-.249.25-.56.374-.934.374s-.685-.125-.934-.374c-.25-.25-.374-.56-.374-.934v-.872c0-.623-.498-1.183-1.183-1.183h-.872c-.374 0-.685-.125-.934-.374a1.262 1.262 0 01-.374-.872c0-.374.125-.685.374-.934l.062-.062c.25-.187.56-.312.872-.312h.872c.623 0 1.183-.498 1.183-1.183v-.872c0-.373.125-.685.374-.934.249-.25.56-.374.934-.374s.685.125.934.374l.063.062c.186.25.31.56.31.872v.872c0 .623.5 1.183 1.184 1.183h.872c.374 0 .685.125.934.374.25.249.374.56.374.934s-.125.685-.374.934z" fill="url(#paint2_linear)"/><path d="M35.836 20.292a2.18 2.18 0 100-4.36 2.18 2.18 0 000 4.36z" fill="url(#paint3_linear)"/><path d="M35.836 29.135a2.18 2.18 0 100-4.359 2.18 2.18 0 000 4.36z" fill="url(#paint4_linear)"/><path d="M31.415 24.714a2.18 2.18 0 100-4.36 2.18 2.18 0 000 4.36z" fill="url(#paint5_linear)"/><path d="M40.258 24.714a2.18 2.18 0 100-4.36 2.18 2.18 0 000 4.36z" fill="url(#paint6_linear)"/><defs><linearGradient id="paint0_linear" x1="25" y1="8.333" x2="25" y2="41.667" gradientUnits="userSpaceOnUse"><stop stop-color="#CAA960"/><stop offset="1" stop-color="#F3D48E"/></linearGradient><linearGradient id="paint1_linear" x1="25" y1="8.333" x2="25" y2="41.667" gradientUnits="userSpaceOnUse"><stop stop-color="#CAA960"/><stop offset="1" stop-color="#F3D48E"/></linearGradient><linearGradient id="paint2_linear" x1="14.444" y1="15.833" x2="14.444" y2="29.659" gradientUnits="userSpaceOnUse"><stop stop-color="#CAA960"/><stop offset="1" stop-color="#F3D48E"/></linearGradient><linearGradient id="paint3_linear" x1="35.836" y1="15.933" x2="35.836" y2="20.292" gradientUnits="userSpaceOnUse"><stop stop-color="#CAA960"/><stop offset="1" stop-color="#F3D48E"/></linearGradient><linearGradient id="paint4_linear" x1="35.836" y1="24.776" x2="35.836" y2="29.135" gradientUnits="userSpaceOnUse"><stop stop-color="#CAA960"/><stop offset="1" stop-color="#F3D48E"/></linearGradient><linearGradient id="paint5_linear" x1="31.415" y1="20.354" x2="31.415" y2="24.714" gradientUnits="userSpaceOnUse"><stop stop-color="#CAA960"/><stop offset="1" stop-color="#F3D48E"/></linearGradient><linearGradient id="paint6_linear" x1="40.258" y1="20.354" x2="40.258" y2="24.714" gradientUnits="userSpaceOnUse"><stop stop-color="#CAA960"/><stop offset="1" stop-color="#F3D48E"/></linearGradient></defs></svg>