<svg width="45" height="45" fill="none" xmlns="http://www.w3.org/2000/svg"><path d="M41.04 35.89a5.673 5.673 0 001.313-3.634c0-3.15-2.573-5.713-5.735-5.713-.149 0-.296.007-.442.018v-8.104h.442a1.32 1.32 0 001.323-1.318c0-.728-.592-1.319-1.323-1.319h-1.324v-3.955c0-.35-.14-.685-.388-.932l-1.764-1.758a1.327 1.327 0 00-1.872 0 1.315 1.315 0 000 1.865l1.377 1.371v3.41h-1.765v-.44c0-2.693-1.63-5.013-3.96-6.035a5.674 5.674 0 001.313-3.633C28.235 2.563 25.662 0 22.5 0c-3.162 0-5.735 2.563-5.735 5.713 0 1.379.493 2.645 1.312 3.633-2.329 1.022-3.96 3.342-3.96 6.035v.44H8.383c-.73 0-1.323.59-1.323 1.318a1.32 1.32 0 001.323 1.318h.442v8.104a5.8 5.8 0 00-.442-.018c-3.162 0-5.735 2.563-5.735 5.713a5.67 5.67 0 001.313 3.633C1.63 36.911 0 39.231 0 41.924v1.758C0 44.41.593 45 1.324 45h42.352c.731 0 1.324-.59 1.324-1.318v-1.758c0-2.693-1.63-5.013-3.96-6.035zm-1.334-3.634a3.086 3.086 0 01-3.088 3.076 3.086 3.086 0 01-3.089-3.076 3.086 3.086 0 013.089-3.076 3.086 3.086 0 013.088 3.076zM22.5 2.636a3.086 3.086 0 013.088 3.077A3.086 3.086 0 0122.5 8.789a3.086 3.086 0 01-3.088-3.076A3.086 3.086 0 0122.5 2.637zm-5.735 12.745c0-2.181 1.78-3.955 3.97-3.955h3.53c2.19 0 3.97 1.774 3.97 3.955v.44h-11.47v-.44zm-5.294 3.076h22.058v8.989a5.707 5.707 0 00-2.647 4.81 5.67 5.67 0 001.313 3.633 6.652 6.652 0 00-2.636 2.084 6.652 6.652 0 00-2.636-2.084 5.674 5.674 0 001.312-3.633c0-3.15-2.573-5.713-5.735-5.713-3.162 0-5.735 2.563-5.735 5.713 0 1.379.493 2.645 1.312 3.633a6.652 6.652 0 00-2.636 2.084 6.652 6.652 0 00-2.636-2.084 5.673 5.673 0 001.313-3.633 5.707 5.707 0 00-2.647-4.81v-8.989zm7.94 13.799A3.086 3.086 0 0122.5 29.18a3.086 3.086 0 013.088 3.076 3.086 3.086 0 01-3.088 3.076 3.086 3.086 0 01-3.088-3.076zM8.383 29.18a3.086 3.086 0 013.089 3.076 3.086 3.086 0 01-3.089 3.076 3.086 3.086 0 01-3.088-3.076 3.086 3.086 0 013.088-3.076zM2.647 41.924c0-2.181 1.781-3.955 3.97-3.955h3.53c2.19 0 3.97 1.774 3.97 3.955v.44H2.648v-.44zm14.118 0c0-2.181 1.78-3.955 3.97-3.955h3.53c2.19 0 3.97 1.774 3.97 3.955v.44h-11.47v-.44zm25.588.44h-11.47v-.44c0-2.181 1.78-3.955 3.97-3.955h3.53c2.189 0 3.97 1.774 3.97 3.955v.44z" fill="url(#paint0_linear)"/><defs><linearGradient id="paint0_linear" x1="22.5" y1="0" x2="22.5" y2="45" gradientUnits="userSpaceOnUse"><stop stop-color="#CAA960"/><stop offset="1" stop-color="#F3D48E"/></linearGradient></defs></svg>