<svg width="50" height="50" fill="none" xmlns="http://www.w3.org/2000/svg"><path d="M25 14.61a7.128 7.128 0 00-7.12 7.12A7.128 7.128 0 0025 28.85a7.128 7.128 0 007.12-7.12A7.128 7.128 0 0025 14.61zm0 11.076a3.96 3.96 0 01-3.956-3.956A3.96 3.96 0 0125 17.774a3.96 3.96 0 013.956 3.956A3.96 3.96 0 0125 25.686z" fill="url(#paint0_linear)"/><path d="M25 25.633c-5.845 0-10.601 4.756-10.601 10.601v2.374a1.582 1.582 0 103.165 0v-2.374c0-4.1 3.335-7.437 7.436-7.437s7.437 3.337 7.437 7.437v2.374a1.582 1.582 0 103.165 0v-2.374c0-5.845-4.756-10.601-10.602-10.601z" fill="url(#paint1_linear)"/><path d="M39.398 9.81a7.128 7.128 0 00-7.12 7.12 7.128 7.128 0 007.12 7.12 7.128 7.128 0 007.12-7.12 7.128 7.128 0 00-7.12-7.12zm0 11.076a3.96 3.96 0 01-3.955-3.956 3.96 3.96 0 013.956-3.955 3.96 3.96 0 013.955 3.955 3.96 3.96 0 01-3.956 3.956z" fill="url(#paint2_linear)"/><path d="M39.398 20.833c-4.848 0-9.08 3.287-10.287 7.993a1.582 1.582 0 003.064.787 7.461 7.461 0 017.224-5.615c4.1 0 7.436 3.336 7.436 7.437v2.373a1.582 1.582 0 103.165 0v-2.373c0-5.846-4.756-10.602-10.602-10.602z" fill="url(#paint3_linear)"/><path d="M10.601 9.81a7.128 7.128 0 00-7.12 7.12 7.128 7.128 0 007.12 7.12 7.128 7.128 0 007.12-7.12 7.128 7.128 0 00-7.12-7.12zm0 11.076a3.96 3.96 0 01-3.955-3.956 3.96 3.96 0 013.955-3.955 3.96 3.96 0 013.956 3.955 3.96 3.96 0 01-3.956 3.956z" fill="url(#paint4_linear)"/><path d="M20.837 28.773a10.564 10.564 0 00-10.236-7.94C4.756 20.833 0 25.59 0 31.435v2.373a1.582 1.582 0 103.165 0v-2.373c0-4.1 3.336-7.437 7.436-7.437a7.4 7.4 0 017.17 5.562 1.583 1.583 0 003.066-.787z" fill="url(#paint5_linear)"/><defs><linearGradient id="paint0_linear" x1="25" y1="14.61" x2="25" y2="28.85" gradientUnits="userSpaceOnUse"><stop stop-color="#CAA960"/><stop offset="1" stop-color="#F3D48E"/></linearGradient><linearGradient id="paint1_linear" x1="25" y1="25.633" x2="25" y2="40.19" gradientUnits="userSpaceOnUse"><stop stop-color="#CAA960"/><stop offset="1" stop-color="#F3D48E"/></linearGradient><linearGradient id="paint2_linear" x1="39.398" y1="9.81" x2="39.398" y2="24.051" gradientUnits="userSpaceOnUse"><stop stop-color="#CAA960"/><stop offset="1" stop-color="#F3D48E"/></linearGradient><linearGradient id="paint3_linear" x1="39.53" y1="20.833" x2="39.53" y2="35.39" gradientUnits="userSpaceOnUse"><stop stop-color="#CAA960"/><stop offset="1" stop-color="#F3D48E"/></linearGradient><linearGradient id="paint4_linear" x1="10.601" y1="9.81" x2="10.601" y2="24.051" gradientUnits="userSpaceOnUse"><stop stop-color="#CAA960"/><stop offset="1" stop-color="#F3D48E"/></linearGradient><linearGradient id="paint5_linear" x1="10.443" y1="20.833" x2="10.443" y2="35.39" gradientUnits="userSpaceOnUse"><stop stop-color="#CAA960"/><stop offset="1" stop-color="#F3D48E"/></linearGradient></defs></svg>