<svg width="24" height="24" fill="none" xmlns="http://www.w3.org/2000/svg"><g clip-path="url(#clip0)"><path d="M9.94 7.856a.75.75 0 00-1.135.644v7c0 .585.638.939 1.134.645l5.87-3.495a.751.751 0 000-1.289L9.94 7.856zm.365 6.325v-4.36l3.655 2.183-3.655 2.177z" fill="url(#paint0_linear)"/><path d="M19.904 3.271c-4.653-.691-11.153-.691-15.808 0C2.234 3.547.767 5.009.447 6.907c-.596 3.523-.596 6.664 0 10.186.32 1.899 1.787 3.36 3.649 3.636 2.332.346 5.124.519 7.915.519 2.786 0 5.571-.172 7.894-.518 1.86-.276 3.326-1.737 3.648-3.636.596-3.523.596-6.665 0-10.188-.32-1.897-1.787-3.359-3.649-3.635zm2.17 13.573c-.213 1.256-1.173 2.222-2.39 2.402-4.518.671-10.838.671-15.368-.001-1.218-.181-2.179-1.146-2.391-2.402-.574-3.394-.574-6.291 0-9.687.213-1.256 1.173-2.22 2.392-2.402 2.262-.335 4.973-.503 7.682-.503 2.711 0 5.422.168 7.684.503 1.218.181 2.179 1.146 2.391 2.402.574 3.396.574 6.293 0 9.688z" fill="url(#paint1_linear)"/></g><defs><linearGradient id="paint0_linear" x1="12.49" y1="7.749" x2="12.49" y2="16.251" gradientUnits="userSpaceOnUse"><stop stop-color="#CAA960"/><stop offset="1" stop-color="#F3D48E"/></linearGradient><linearGradient id="paint1_linear" x1="12" y1="2.753" x2="12" y2="21.248" gradientUnits="userSpaceOnUse"><stop stop-color="#CAA960"/><stop offset="1" stop-color="#F3D48E"/></linearGradient><clipPath id="clip0"><path fill="#fff" d="M0 0h24v24H0z"/></clipPath></defs></svg>